<?xml version="1.0" encoding="utf-8"?>
<!-- Generator: Adobe Illustrator 22.0.1, SVG Export Plug-In . SVG Version: 6.00 Build 0)  -->
<svg version="1.1" id="Layer_1" xmlns="http://www.w3.org/2000/svg" xmlns:xlink="http://www.w3.org/1999/xlink" x="0px" y="0px"
	 viewBox="0 0 236.4 40" style="enable-background:new 0 0 236.4 40;" xml:space="preserve">
<style type="text/css">
	.st0{fill:url(#SVGID_1_);}
	.st1{fill:url(#SVGID_2_);}
	.st2{fill:url(#SVGID_3_);}
	.st3{fill:url(#SVGID_4_);}
	.st4{fill:#E62E04;}
	.st5{fill:#F78A1C;}
	.st6{fill:url(#SVGID_5_);}
	.st7{fill:url(#SVGID_6_);}
	.st8{fill:url(#SVGID_7_);}
	.st9{fill:url(#SVGID_8_);}
</style>
<g>
	<linearGradient id="SVGID_1_" gradientUnits="userSpaceOnUse" x1="15.1" y1="32.5" x2="18.9" y2="32.5">
		<stop  offset="0" style="stop-color:#E62E04"/>
		<stop  offset="0.3055" style="stop-color:#EC5E17"/>
		<stop  offset="1" style="stop-color:#FBD748"/>
	</linearGradient>
	<circle class="st0" cx="17" cy="32.5" r="1.9"/>
	<linearGradient id="SVGID_2_" gradientUnits="userSpaceOnUse" x1="26.8" y1="32.5" x2="30.6" y2="32.5">
		<stop  offset="0" style="stop-color:#E62E04"/>
		<stop  offset="0.3055" style="stop-color:#EC5E17"/>
		<stop  offset="1" style="stop-color:#FBD748"/>
	</linearGradient>
	<circle class="st1" cx="28.7" cy="32.5" r="1.9"/>
	<g>
		<linearGradient id="SVGID_3_" gradientUnits="userSpaceOnUse" x1="0" y1="20" x2="40" y2="20">
			<stop  offset="0" style="stop-color:#E62E04"/>
			<stop  offset="0.3055" style="stop-color:#EC5E17"/>
			<stop  offset="1" style="stop-color:#FBD748"/>
		</linearGradient>
		<path class="st2" d="M20,0C9,0,0,9,0,20s9,20,20,20s20-9,20-20S31,0,20,0z M20.7,39.2c-10.4,0-18.9-8.5-18.9-18.9
			S10.3,1.4,20.7,1.4s18.9,8.5,18.9,18.9S31.1,39.2,20.7,39.2z"/>
		<linearGradient id="SVGID_4_" gradientUnits="userSpaceOnUse" x1="6.284" y1="19.2465" x2="33.3" y2="19.2465">
			<stop  offset="0" style="stop-color:#E62E04"/>
			<stop  offset="0.3055" style="stop-color:#EC5E17"/>
			<stop  offset="1" style="stop-color:#FBD748"/>
		</linearGradient>
		<path class="st3" d="M31.6,28c-0.1-0.1-0.3-0.1-0.3-0.1H15.6c-0.2,0-0.3,0-0.4-0.1c-0.1-0.1,0.1-0.4,0.1-0.4s1.5-2,1.6-2.1
			s0.3-0.1,0.3-0.1h12.4L33.3,13c0,0-19.5,0-19.8,0c-0.3,0-0.3,0-0.3,0L13,12.4l-0.4-1.3c0,0-0.3-0.9-0.6-1.1
			c-0.3-0.2-4.2-1.5-4.2-1.5C6.4,8.4,6.3,9.4,6.3,9.4c-0.1,0.8,0.3,1,0.3,1s3.2,1.1,3.4,1.2c0.2,0.1,0.3,0.4,0.3,0.4l2.6,7.2
			l1.7,4.8c0,0,0.2,0.5,0.2,0.7c-0.1,0.2-2,2.4-2,2.4c-1.3,1.9,0,2.8,0,2.8C12.9,30,13,30,13,30h18.2c0.2,0,0.3-0.1,0.3-0.1
			c0.2-0.1,0.5-0.6,0.5-0.6C32.4,28.7,31.6,28,31.6,28z M28,22.8H16.6l-0.7-2.7h12.9L28,22.8z M14.2,15.1h16.3l-0.9,2.6H15.1
			L14.2,15.1z"/>
	</g>
</g>
<g>
	<g>
		<path class="st4" d="M53,19.1h-4.4l-0.8,2.5H45l4.6-12.3h2.3l4.6,12.3h-2.7L53,19.1z M49.2,17h3.1l-1.5-4.6L49.2,17z"/>
		<path class="st4" d="M68.1,17.5c-0.1,1.3-0.6,2.4-1.5,3.1c-0.9,0.8-2,1.1-3.5,1.1c-1.6,0-2.8-0.5-3.7-1.6s-1.4-2.5-1.4-4.4v-0.8
			c0-1.2,0.2-2.2,0.6-3.1s1-1.6,1.8-2.1c0.8-0.5,1.7-0.7,2.7-0.7c1.4,0,2.6,0.4,3.4,1.1s1.4,1.8,1.5,3.2h-2.5
			c-0.1-0.8-0.3-1.4-0.7-1.7c-0.4-0.4-1-0.5-1.7-0.5c-0.8,0-1.5,0.3-1.9,0.9s-0.6,1.5-0.6,2.8v0.9c0,1.3,0.2,2.3,0.6,2.9
			c0.4,0.6,1,0.9,1.9,0.9c0.8,0,1.4-0.2,1.7-0.5c0.4-0.4,0.6-0.9,0.7-1.7H68.1z"/>
		<path class="st4" d="M79.7,11.4H76v10.2h-2.5V11.4h-3.7v-2h10V11.4z"/>
		<path class="st4" d="M84.9,21.6h-2.5V9.3h2.5V21.6z"/>
		<path class="st4" d="M92.7,18.5l2.8-9.2h2.8l-4.3,12.3h-2.6L87.2,9.3H90L92.7,18.5z"/>
		<path class="st4" d="M107.9,16.3H103v3.3h5.7v2h-8.2V9.3h8.2v2H103v2.9h4.9V16.3z"/>
		<path class="st4" d="M122.8,18.4c0-0.5-0.2-0.8-0.5-1.1c-0.3-0.3-0.9-0.5-1.8-0.8s-1.6-0.6-2.1-0.8c-1.4-0.8-2.1-1.8-2.1-3
			c0-0.7,0.2-1.3,0.6-1.8c0.4-0.5,0.9-0.9,1.6-1.2c0.7-0.3,1.5-0.4,2.4-0.4c0.9,0,1.7,0.2,2.3,0.5c0.7,0.3,1.2,0.8,1.6,1.3
			c0.4,0.6,0.6,1.2,0.6,2h-2.5c0-0.6-0.2-1-0.5-1.3c-0.4-0.3-0.9-0.5-1.5-0.5c-0.6,0-1.1,0.1-1.4,0.4c-0.3,0.3-0.5,0.6-0.5,1
			c0,0.4,0.2,0.7,0.6,1c0.4,0.3,1,0.5,1.8,0.8c1.4,0.4,2.5,1,3.1,1.6c0.7,0.6,1,1.4,1,2.4c0,1.1-0.4,1.9-1.2,2.5
			c-0.8,0.6-1.9,0.9-3.2,0.9c-0.9,0-1.8-0.2-2.6-0.5c-0.8-0.3-1.4-0.8-1.8-1.4c-0.4-0.6-0.6-1.3-0.6-2.1h2.5c0,1.4,0.8,2,2.4,2
			c0.6,0,1.1-0.1,1.4-0.4C122.6,19.1,122.8,18.8,122.8,18.4z"/>
		<path class="st4" d="M137.3,9.3v8.1c0,1.3-0.4,2.4-1.3,3.2c-0.8,0.8-2,1.2-3.4,1.2c-1.4,0-2.6-0.4-3.4-1.1
			c-0.8-0.8-1.3-1.8-1.3-3.1V9.3h2.5v8.1c0,0.8,0.2,1.4,0.6,1.8c0.4,0.4,0.9,0.6,1.6,0.6c1.4,0,2.1-0.7,2.2-2.2V9.3H137.3z"/>
		<path class="st4" d="M142.9,17.3v4.3h-2.5V9.3h4.8c0.9,0,1.7,0.2,2.4,0.5c0.7,0.3,1.2,0.8,1.6,1.4s0.6,1.3,0.6,2.1
			c0,1.2-0.4,2.2-1.2,2.8c-0.8,0.7-2,1-3.4,1H142.9z M142.9,15.2h2.3c0.7,0,1.2-0.2,1.5-0.5c0.4-0.3,0.5-0.8,0.5-1.3
			c0-0.6-0.2-1.1-0.5-1.5s-0.8-0.6-1.5-0.6h-2.3V15.2z"/>
		<path class="st4" d="M159.9,16.3h-4.9v3.3h5.7v2h-8.2V9.3h8.2v2h-5.7v2.9h4.9V16.3z"/>
		<path class="st4" d="M167.8,17.1h-2v4.5h-2.5V9.3h4.6c1.5,0,2.6,0.3,3.4,1s1.2,1.6,1.2,2.7c0,0.8-0.2,1.5-0.5,2.1
			c-0.4,0.6-0.9,1-1.6,1.3l2.7,5v0.1h-2.7L167.8,17.1z M165.8,15h2c0.6,0,1.1-0.2,1.5-0.5c0.3-0.3,0.5-0.8,0.5-1.3
			c0-0.6-0.2-1-0.5-1.4c-0.3-0.3-0.8-0.5-1.5-0.5h-2V15z"/>
		<path class="st4" d="M186.9,18.4c0-0.5-0.2-0.8-0.5-1.1c-0.3-0.3-0.9-0.5-1.8-0.8s-1.6-0.6-2.1-0.8c-1.4-0.8-2.1-1.8-2.1-3
			c0-0.7,0.2-1.3,0.6-1.8c0.4-0.5,0.9-0.9,1.6-1.2c0.7-0.3,1.5-0.4,2.4-0.4c0.9,0,1.7,0.2,2.3,0.5c0.7,0.3,1.2,0.8,1.6,1.3
			c0.4,0.6,0.6,1.2,0.6,2h-2.5c0-0.6-0.2-1-0.5-1.3c-0.4-0.3-0.9-0.5-1.5-0.5c-0.6,0-1.1,0.1-1.4,0.4c-0.3,0.3-0.5,0.6-0.5,1
			c0,0.4,0.2,0.7,0.6,1c0.4,0.3,1,0.5,1.8,0.8c1.4,0.4,2.5,1,3.1,1.6c0.7,0.6,1,1.4,1,2.4c0,1.1-0.4,1.9-1.2,2.5
			c-0.8,0.6-1.9,0.9-3.2,0.9c-0.9,0-1.8-0.2-2.6-0.5c-0.8-0.3-1.4-0.8-1.8-1.4c-0.4-0.6-0.6-1.3-0.6-2.1h2.5c0,1.4,0.8,2,2.4,2
			c0.6,0,1.1-0.1,1.4-0.4C186.7,19.1,186.9,18.8,186.9,18.4z"/>
		<path class="st4" d="M202.1,21.6h-2.5v-5.3h-4.9v5.3h-2.5V9.3h2.5v5h4.9v-5h2.5V21.6z"/>
		<path class="st4" d="M215.4,15.7c0,1.2-0.2,2.3-0.6,3.2c-0.4,0.9-1,1.6-1.8,2.1c-0.8,0.5-1.7,0.7-2.7,0.7c-1,0-1.9-0.2-2.7-0.7
			c-0.8-0.5-1.4-1.2-1.9-2.1c-0.4-0.9-0.7-2-0.7-3.1v-0.6c0-1.2,0.2-2.3,0.7-3.2s1.1-1.6,1.8-2.1c0.8-0.5,1.7-0.7,2.7-0.7
			s1.9,0.2,2.7,0.7c0.8,0.5,1.4,1.2,1.8,2.1s0.7,2,0.7,3.2V15.7z M212.8,15.2c0-1.3-0.2-2.3-0.7-2.9c-0.5-0.7-1.1-1-2-1
			c-0.8,0-1.5,0.3-2,1c-0.5,0.7-0.7,1.6-0.7,2.9v0.6c0,1.3,0.2,2.2,0.7,2.9c0.5,0.7,1.1,1,2,1c0.8,0,1.5-0.3,2-1
			c0.5-0.7,0.7-1.6,0.7-2.9V15.2z"/>
		<path class="st4" d="M220.7,17.3v4.3h-2.5V9.3h4.8c0.9,0,1.7,0.2,2.4,0.5s1.2,0.8,1.6,1.4c0.4,0.6,0.6,1.3,0.6,2.1
			c0,1.2-0.4,2.2-1.2,2.8s-2,1-3.4,1H220.7z M220.7,15.2h2.3c0.7,0,1.2-0.2,1.5-0.5c0.4-0.3,0.5-0.8,0.5-1.3c0-0.6-0.2-1.1-0.5-1.5
			c-0.4-0.4-0.8-0.6-1.5-0.6h-2.3V15.2z"/>
	</g>
</g>
<g>
	<g>
		<path class="st5" d="M87.9,30.3H90v0.8h-3v-4.7h1V30.3z"/>
		<path class="st5" d="M96,30.1h-1.7l-0.3,1h-1l1.8-4.7h0.9l1.8,4.7h-1L96,30.1z M94.6,29.3h1.2l-0.6-1.8L94.6,29.3z"/>
		<path class="st5" d="M102.4,29.3h-0.8v1.7h-1v-4.7h1.8c0.6,0,1,0.1,1.3,0.4c0.3,0.2,0.5,0.6,0.5,1.1c0,0.3-0.1,0.6-0.2,0.8
			s-0.4,0.4-0.6,0.5l1,1.9v0h-1L102.4,29.3z M101.6,28.5h0.8c0.2,0,0.4-0.1,0.6-0.2c0.1-0.1,0.2-0.3,0.2-0.5c0-0.2-0.1-0.4-0.2-0.5
			c-0.1-0.1-0.3-0.2-0.6-0.2h-0.8V28.5z"/>
		<path class="st5" d="M110.3,30.1h-1.7l-0.3,1h-1l1.8-4.7h0.9l1.8,4.7h-1L110.3,30.1z M108.9,29.3h1.2l-0.6-1.8L108.9,29.3z"/>
		<path class="st5" d="M116.4,29.9l1.1-3.5h1.1l-1.6,4.7h-1l-1.6-4.7h1.1L116.4,29.9z"/>
		<path class="st5" d="M124.6,29h-1.9v1.3h2.2v0.8h-3.2v-4.7h3.2v0.8h-2.2v1.1h1.9V29z"/>
		<path class="st5" d="M129.3,30.3h2.1v0.8h-3v-4.7h1V30.3z"/>
		<path class="st5" d="M140.8,29.9l1.1-3.5h1.1l-1.6,4.7h-1l-1.6-4.7h1.1L140.8,29.9z"/>
		<path class="st5" d="M149.1,29h-1.9v1.3h2.2v0.8h-3.2v-4.7h3.2v0.8h-2.2v1.1h1.9V29z"/>
		<path class="st5" d="M154.5,29.3h-0.8v1.7h-1v-4.7h1.8c0.6,0,1,0.1,1.3,0.4c0.3,0.2,0.5,0.6,0.5,1.1c0,0.3-0.1,0.6-0.2,0.8
			s-0.4,0.4-0.6,0.5l1,1.9v0h-1L154.5,29.3z M153.7,28.5h0.8c0.2,0,0.4-0.1,0.6-0.2c0.1-0.1,0.2-0.3,0.2-0.5c0-0.2-0.1-0.4-0.2-0.5
			c-0.1-0.1-0.3-0.2-0.6-0.2h-0.8V28.5z"/>
		<path class="st5" d="M162.2,29.8c0-0.2-0.1-0.3-0.2-0.4c-0.1-0.1-0.4-0.2-0.7-0.3c-0.3-0.1-0.6-0.2-0.8-0.3
			c-0.5-0.3-0.8-0.7-0.8-1.2c0-0.3,0.1-0.5,0.2-0.7c0.1-0.2,0.3-0.4,0.6-0.5s0.6-0.2,0.9-0.2c0.3,0,0.6,0.1,0.9,0.2s0.5,0.3,0.6,0.5
			s0.2,0.5,0.2,0.8h-1c0-0.2-0.1-0.4-0.2-0.5c-0.1-0.1-0.3-0.2-0.6-0.2c-0.2,0-0.4,0.1-0.6,0.2c-0.1,0.1-0.2,0.2-0.2,0.4
			c0,0.2,0.1,0.3,0.2,0.4c0.2,0.1,0.4,0.2,0.7,0.3c0.6,0.2,1,0.4,1.2,0.6c0.3,0.2,0.4,0.6,0.4,0.9c0,0.4-0.2,0.7-0.5,1
			c-0.3,0.2-0.7,0.3-1.2,0.3c-0.4,0-0.7-0.1-1-0.2c-0.3-0.1-0.5-0.3-0.7-0.5c-0.2-0.2-0.2-0.5-0.2-0.8h1c0,0.5,0.3,0.8,0.9,0.8
			c0.2,0,0.4,0,0.5-0.1C162.1,30.1,162.2,30,162.2,29.8z"/>
		<path class="st5" d="M167.7,31.1h-1v-4.7h1V31.1z"/>
		<path class="st5" d="M175.2,28.8c0,0.5-0.1,0.9-0.2,1.2s-0.4,0.6-0.7,0.8c-0.3,0.2-0.7,0.3-1.1,0.3c-0.4,0-0.7-0.1-1-0.3
			c-0.3-0.2-0.5-0.5-0.7-0.8c-0.2-0.3-0.3-0.8-0.3-1.2v-0.2c0-0.5,0.1-0.9,0.3-1.2c0.2-0.4,0.4-0.6,0.7-0.8c0.3-0.2,0.7-0.3,1-0.3
			c0.4,0,0.7,0.1,1,0.3c0.3,0.2,0.5,0.5,0.7,0.8c0.2,0.4,0.3,0.8,0.3,1.2V28.8z M174.2,28.6c0-0.5-0.1-0.9-0.3-1.1
			c-0.2-0.3-0.4-0.4-0.8-0.4c-0.3,0-0.6,0.1-0.8,0.4c-0.2,0.3-0.3,0.6-0.3,1.1v0.2c0,0.5,0.1,0.9,0.3,1.1c0.2,0.3,0.4,0.4,0.8,0.4
			c0.3,0,0.6-0.1,0.8-0.4s0.3-0.6,0.3-1.1V28.6z"/>
		<path class="st5" d="M182.5,31.1h-1l-1.9-3.1v3.1h-1v-4.7h1l1.9,3.1v-3.1h1V31.1z"/>
	</g>
	<g>
		
			<linearGradient id="SVGID_5_" gradientUnits="userSpaceOnUse" x1="-1049.4269" y1="29.0964" x2="-1015.835" y2="29.0964" gradientTransform="matrix(-1 0 0 1 -971.0521 0)">
			<stop  offset="0" style="stop-color:#E69204"/>
			<stop  offset="1" style="stop-color:#E62E04"/>
		</linearGradient>
		<path class="st6" d="M44.8,29.3C44.8,29.3,44.8,29.3,44.8,29.3l33.5,0c0,0,0.1,0,0.1,0v-0.4c0,0,0,0-0.1,0H44.9c0,0-0.1,0-0.1,0
			V29.3z"/>
		
			<linearGradient id="SVGID_6_" gradientUnits="userSpaceOnUse" x1="-1049.6492" y1="31.1429" x2="-1049.6492" y2="26.9377" gradientTransform="matrix(-1 0 0 1 -971.0521 0)">
			<stop  offset="0" style="stop-color:#E69204"/>
			<stop  offset="1" style="stop-color:#E62E04"/>
		</linearGradient>
		<path class="st7" d="M78.4,26.9C78.4,26.9,78.4,26.9,78.4,26.9l0,4.2c0,0,0,0,0,0h0.4c0,0,0,0,0,0v-4.2c0,0,0,0,0,0H78.4z"/>
	</g>
	<g>
		
			<linearGradient id="SVGID_7_" gradientUnits="userSpaceOnUse" x1="-66.7244" y1="-441.3265" x2="-33.1325" y2="-441.3265" gradientTransform="matrix(1 0 0 -1 259.763 -412.3424)">
			<stop  offset="0" style="stop-color:#E69204"/>
			<stop  offset="1" style="stop-color:#E62E04"/>
		</linearGradient>
		<path class="st8" d="M226.6,28.8C226.6,28.8,226.6,28.8,226.6,28.8l-33.5,0c0,0-0.1,0-0.1,0v0.4c0,0,0,0,0.1,0h33.4
			c0,0,0.1,0,0.1,0V28.8z"/>
		
			<linearGradient id="SVGID_8_" gradientUnits="userSpaceOnUse" x1="-66.9468" y1="-439.2801" x2="-66.9468" y2="-443.4853" gradientTransform="matrix(1 0 0 -1 259.763 -412.3424)">
			<stop  offset="0" style="stop-color:#E69204"/>
			<stop  offset="1" style="stop-color:#E62E04"/>
		</linearGradient>
		<path class="st9" d="M193,31.1C193,31.1,193,31.1,193,31.1l0-4.2c0,0,0,0,0,0h-0.4c0,0,0,0,0,0v4.2c0,0,0,0,0,0H193z"/>
	</g>
</g>
</svg>
