<?xml version="1.0" encoding="utf-8"?>
<!-- Generator: Adobe Illustrator 22.0.1, SVG Export Plug-In . SVG Version: 6.00 Build 0)  -->
<svg version="1.1" id="Layer_1" xmlns="http://www.w3.org/2000/svg" xmlns:xlink="http://www.w3.org/1999/xlink" x="0px" y="0px"
	 viewBox="0 0 236.4 40" style="enable-background:new 0 0 236.4 40;" xml:space="preserve">
<style type="text/css">
	.st0{fill:url(#SVGID_1_);}
	.st1{fill:url(#SVGID_2_);}
	.st2{fill:url(#SVGID_3_);}
	.st3{fill:url(#SVGID_4_);}
	.st4{fill:url(#SVGID_5_);}
	.st5{fill:url(#SVGID_6_);}
	.st6{fill:url(#SVGID_7_);}
	.st7{fill:url(#SVGID_8_);}
	.st8{fill:url(#SVGID_9_);}
	.st9{fill:url(#SVGID_10_);}
	.st10{fill:url(#SVGID_11_);}
	.st11{fill:url(#SVGID_12_);}
	.st12{fill:url(#SVGID_13_);}
	.st13{fill:url(#SVGID_14_);}
	.st14{fill:url(#SVGID_15_);}
	.st15{fill:url(#SVGID_16_);}
	.st16{fill:url(#SVGID_17_);}
	.st17{fill:url(#SVGID_18_);}
	.st18{fill:url(#SVGID_19_);}
	.st19{fill:url(#SVGID_20_);}
	.st20{fill:url(#SVGID_21_);}
	.st21{fill:url(#SVGID_22_);}
	.st22{fill:url(#SVGID_23_);}
	.st23{fill:url(#SVGID_24_);}
	.st24{fill:url(#SVGID_25_);}
	.st25{fill:url(#SVGID_26_);}
	.st26{fill:url(#SVGID_27_);}
	.st27{fill:url(#SVGID_28_);}
	.st28{fill:url(#SVGID_29_);}
	.st29{fill:url(#SVGID_30_);}
	.st30{fill:url(#SVGID_31_);}
	.st31{fill:url(#SVGID_32_);}
	.st32{fill:url(#SVGID_33_);}
	.st33{fill:url(#SVGID_34_);}
	.st34{fill:url(#SVGID_35_);}
	.st35{fill:#253F2D;}
	.st36{font-family:'Roboto-Bold';}
	.st37{font-size:17.2692px;}
	.st38{letter-spacing:1;}
	.st39{fill:#A0CE4E;}
</style>
<g>
	<linearGradient id="SVGID_1_" gradientUnits="userSpaceOnUse" x1="15.0502" y1="32.4855" x2="18.9231" y2="32.4855">
		<stop  offset="0" style="stop-color:#5ACE4E"/>
		<stop  offset="0.4113" style="stop-color:#7ECE4E"/>
		<stop  offset="0.7781" style="stop-color:#97CE4E"/>
		<stop  offset="1" style="stop-color:#A0CE4E"/>
	</linearGradient>
	<circle class="st0" cx="17" cy="32.5" r="1.9"/>
	<linearGradient id="SVGID_2_" gradientUnits="userSpaceOnUse" x1="26.7345" y1="32.4855" x2="30.6073" y2="32.4855">
		<stop  offset="0" style="stop-color:#5ACE4E"/>
		<stop  offset="0.4113" style="stop-color:#7ECE4E"/>
		<stop  offset="0.7781" style="stop-color:#97CE4E"/>
		<stop  offset="1" style="stop-color:#A0CE4E"/>
	</linearGradient>
	<circle class="st1" cx="28.7" cy="32.5" r="1.9"/>
	<g>
		<linearGradient id="SVGID_3_" gradientUnits="userSpaceOnUse" x1="0" y1="20" x2="40" y2="20">
			<stop  offset="0" style="stop-color:#5ACE4E"/>
			<stop  offset="0.4113" style="stop-color:#7ECE4E"/>
			<stop  offset="0.7781" style="stop-color:#97CE4E"/>
			<stop  offset="1" style="stop-color:#A0CE4E"/>
		</linearGradient>
		<path class="st2" d="M20,0C9,0,0,9,0,20c0,11,9,20,20,20s20-9,20-20C40,9,31,0,20,0z M20.7,39.2c-10.4,0-18.9-8.5-18.9-18.9
			S10.3,1.4,20.7,1.4s18.9,8.5,18.9,18.9S31.1,39.2,20.7,39.2z"/>
		<linearGradient id="SVGID_4_" gradientUnits="userSpaceOnUse" x1="6.2478" y1="19.2595" x2="33.2584" y2="19.2595">
			<stop  offset="0" style="stop-color:#5ACE4E"/>
			<stop  offset="0.4113" style="stop-color:#7ECE4E"/>
			<stop  offset="0.7781" style="stop-color:#97CE4E"/>
			<stop  offset="1" style="stop-color:#A0CE4E"/>
		</linearGradient>
		<path class="st3" d="M31.6,28c-0.1-0.1-0.3-0.1-0.3-0.1H15.6c-0.2,0-0.3,0-0.4-0.1c-0.1-0.1,0.1-0.4,0.1-0.4s1.5-2,1.6-2.1
			c0.1-0.1,0.3-0.1,0.3-0.1l12.4,0L33.3,13c0,0-19.5,0-19.8,0c-0.3,0-0.3,0-0.3,0L13,12.4l-0.4-1.3c0,0-0.3-0.9-0.6-1.1
			c-0.3-0.2-4.2-1.5-4.2-1.5C6.4,8.4,6.3,9.4,6.3,9.4c-0.1,0.8,0.3,1,0.3,1s3.2,1.1,3.4,1.2c0.2,0.1,0.3,0.4,0.3,0.4l2.6,7.2
			l1.7,4.8c0,0,0.2,0.5,0.2,0.7c-0.1,0.2-2,2.4-2,2.4c-1.3,1.9,0,2.8,0,2.8C12.9,30,13,30,13,30h18.2c0.2,0,0.3-0.1,0.3-0.1
			c0.2-0.1,0.5-0.6,0.5-0.6C32.4,28.7,31.6,28,31.6,28z M28,22.8H16.6l-0.7-2.7l12.9,0L28,22.8z M14.2,15.1l16.3,0l-0.9,2.6H15.1
			L14.2,15.1z"/>
	</g>
	<g>
		<linearGradient id="SVGID_5_" gradientUnits="userSpaceOnUse" x1="69.0525" y1="29.527" x2="72.5631" y2="29.527">
			<stop  offset="0" style="stop-color:#5ACE4E"/>
			<stop  offset="1" style="stop-color:#A0CE4E"/>
		</linearGradient>
		<path class="st4" d="M70.8,29.8l1.3-2.4h0.4L71,30.1v1.6h-0.4v-1.6l-1.6-2.7h0.4L70.8,29.8z"/>
		<linearGradient id="SVGID_6_" gradientUnits="userSpaceOnUse" x1="73.4576" y1="29.5271" x2="76.8277" y2="29.5271">
			<stop  offset="0" style="stop-color:#5ACE4E"/>
			<stop  offset="1" style="stop-color:#A0CE4E"/>
		</linearGradient>
		<path class="st5" d="M76.8,29.9c0,0.6-0.2,1-0.5,1.4c-0.3,0.3-0.7,0.5-1.2,0.5c-0.5,0-0.9-0.2-1.2-0.5c-0.3-0.3-0.5-0.8-0.5-1.4
			v-0.7c0-0.6,0.2-1,0.5-1.4c0.3-0.3,0.7-0.5,1.2-0.5c0.5,0,0.9,0.2,1.2,0.5c0.3,0.3,0.5,0.8,0.5,1.4V29.9z M76.5,29.2
			c0-0.5-0.1-0.8-0.4-1.1c-0.2-0.3-0.6-0.4-1-0.4c-0.4,0-0.7,0.1-1,0.4c-0.2,0.3-0.3,0.7-0.3,1.1v0.7c0,0.5,0.1,0.9,0.3,1.1
			c0.2,0.3,0.6,0.4,1,0.4c0.4,0,0.8-0.1,1-0.4c0.2-0.3,0.4-0.7,0.4-1.1V29.2z"/>
		<linearGradient id="SVGID_7_" gradientUnits="userSpaceOnUse" x1="78.1842" y1="29.5583" x2="81.2921" y2="29.5583">
			<stop  offset="0" style="stop-color:#5ACE4E"/>
			<stop  offset="1" style="stop-color:#A0CE4E"/>
		</linearGradient>
		<path class="st6" d="M81.3,27.4v2.9c0,0.5-0.1,0.9-0.4,1.1c-0.3,0.3-0.7,0.4-1.1,0.4c-0.5,0-0.8-0.1-1.1-0.4
			c-0.3-0.3-0.4-0.6-0.4-1.1v-2.9h0.4v2.9c0,0.4,0.1,0.7,0.3,0.9c0.2,0.2,0.5,0.3,0.9,0.3c0.4,0,0.6-0.1,0.9-0.3
			c0.2-0.2,0.3-0.5,0.3-0.9v-2.9H81.3z"/>
		<linearGradient id="SVGID_8_" gradientUnits="userSpaceOnUse" x1="82.8186" y1="29.5285" x2="85.9112" y2="29.5285">
			<stop  offset="0" style="stop-color:#5ACE4E"/>
			<stop  offset="1" style="stop-color:#A0CE4E"/>
		</linearGradient>
		<path class="st7" d="M83.2,29.7v2h-0.4v-4.3h1.4c0.5,0,0.8,0.1,1.1,0.3c0.2,0.2,0.4,0.5,0.4,0.9c0,0.2-0.1,0.4-0.2,0.6
			c-0.1,0.2-0.3,0.3-0.6,0.4c0.3,0.1,0.5,0.2,0.6,0.4c0.1,0.2,0.2,0.4,0.2,0.7V31c0,0.1,0,0.3,0,0.4c0,0.1,0.1,0.2,0.2,0.3v0.1h-0.4
			c-0.1-0.1-0.1-0.2-0.2-0.3c0-0.1,0-0.3,0-0.4v-0.4c0-0.3-0.1-0.5-0.3-0.6c-0.2-0.2-0.4-0.2-0.7-0.2H83.2z M83.2,29.4h1
			c0.4,0,0.7-0.1,0.9-0.2c0.2-0.2,0.3-0.4,0.3-0.6c0-0.3-0.1-0.5-0.3-0.7c-0.2-0.2-0.5-0.2-0.8-0.2h-1.1V29.4z"/>
		<linearGradient id="SVGID_9_" gradientUnits="userSpaceOnUse" x1="89.3671" y1="29.527" x2="89.7247" y2="29.527">
			<stop  offset="0" style="stop-color:#5ACE4E"/>
			<stop  offset="1" style="stop-color:#A0CE4E"/>
		</linearGradient>
		<path class="st8" d="M89.7,31.7h-0.4v-4.3h0.4V31.7z"/>
		<linearGradient id="SVGID_10_" gradientUnits="userSpaceOnUse" x1="91.4156" y1="29.527" x2="94.6163" y2="29.527">
			<stop  offset="0" style="stop-color:#5ACE4E"/>
			<stop  offset="1" style="stop-color:#A0CE4E"/>
		</linearGradient>
		<path class="st9" d="M94.6,31.7h-0.4L91.8,28l0,0v3.7h-0.4v-4.3h0.4l2.5,3.7l0,0v-3.7h0.4V31.7z"/>
		<linearGradient id="SVGID_11_" gradientUnits="userSpaceOnUse" x1="95.7157" y1="29.527" x2="99.0802" y2="29.527">
			<stop  offset="0" style="stop-color:#5ACE4E"/>
			<stop  offset="1" style="stop-color:#A0CE4E"/>
		</linearGradient>
		<path class="st10" d="M99.1,27.7h-1.5v4h-0.4v-4h-1.5v-0.3h3.4V27.7z"/>
		<linearGradient id="SVGID_12_" gradientUnits="userSpaceOnUse" x1="100.2668" y1="29.527" x2="102.877" y2="29.527">
			<stop  offset="0" style="stop-color:#5ACE4E"/>
			<stop  offset="1" style="stop-color:#A0CE4E"/>
		</linearGradient>
		<path class="st11" d="M102.6,29.6h-1.9v1.8h2.3v0.3h-2.6v-4.3h2.6v0.3h-2.2v1.6h1.9V29.6z"/>
		<linearGradient id="SVGID_13_" gradientUnits="userSpaceOnUse" x1="104.1224" y1="29.527" x2="106.7235" y2="29.527">
			<stop  offset="0" style="stop-color:#5ACE4E"/>
			<stop  offset="1" style="stop-color:#A0CE4E"/>
		</linearGradient>
		<path class="st12" d="M104.5,31.4h2.2v0.3h-2.6v-4.3h0.4V31.4z"/>
		<linearGradient id="SVGID_14_" gradientUnits="userSpaceOnUse" x1="107.9755" y1="29.527" x2="110.5765" y2="29.527">
			<stop  offset="0" style="stop-color:#5ACE4E"/>
			<stop  offset="1" style="stop-color:#A0CE4E"/>
		</linearGradient>
		<path class="st13" d="M108.3,31.4h2.2v0.3H108v-4.3h0.4V31.4z"/>
		<linearGradient id="SVGID_15_" gradientUnits="userSpaceOnUse" x1="111.9209" y1="29.527" x2="112.2786" y2="29.527">
			<stop  offset="0" style="stop-color:#5ACE4E"/>
			<stop  offset="1" style="stop-color:#A0CE4E"/>
		</linearGradient>
		<path class="st14" d="M112.3,31.7h-0.4v-4.3h0.4V31.7z"/>
		<linearGradient id="SVGID_16_" gradientUnits="userSpaceOnUse" x1="113.8503" y1="29.5271" x2="117.0565" y2="29.5271">
			<stop  offset="0" style="stop-color:#5ACE4E"/>
			<stop  offset="1" style="stop-color:#A0CE4E"/>
		</linearGradient>
		<path class="st15" d="M117.1,31.1c-0.1,0.2-0.3,0.3-0.5,0.4c-0.3,0.1-0.6,0.2-1,0.2c-0.5,0-0.9-0.2-1.2-0.5
			c-0.3-0.3-0.5-0.8-0.5-1.3v-0.8c0-0.5,0.2-1,0.5-1.3c0.3-0.3,0.7-0.5,1.2-0.5c0.5,0,0.8,0.1,1.1,0.4c0.3,0.2,0.4,0.6,0.4,0.9l0,0
			h-0.3c0-0.3-0.1-0.5-0.3-0.7c-0.2-0.2-0.5-0.3-0.9-0.3c-0.4,0-0.7,0.1-0.9,0.4c-0.2,0.3-0.4,0.6-0.4,1.1v0.8
			c0,0.5,0.1,0.8,0.4,1.1c0.2,0.3,0.6,0.4,1,0.4c0.3,0,0.6,0,0.7-0.1c0.2-0.1,0.3-0.2,0.4-0.3v-1.1h-1.2v-0.3h1.5V31.1z"/>
		<linearGradient id="SVGID_17_" gradientUnits="userSpaceOnUse" x1="118.6632" y1="29.527" x2="121.2734" y2="29.527">
			<stop  offset="0" style="stop-color:#5ACE4E"/>
			<stop  offset="1" style="stop-color:#A0CE4E"/>
		</linearGradient>
		<path class="st16" d="M121,29.6H119v1.8h2.3v0.3h-2.6v-4.3h2.6v0.3H119v1.6h1.9V29.6z"/>
		<linearGradient id="SVGID_18_" gradientUnits="userSpaceOnUse" x1="122.5193" y1="29.527" x2="125.72" y2="29.527">
			<stop  offset="0" style="stop-color:#5ACE4E"/>
			<stop  offset="1" style="stop-color:#A0CE4E"/>
		</linearGradient>
		<path class="st17" d="M125.7,31.7h-0.4l-2.5-3.7l0,0v3.7h-0.4v-4.3h0.4l2.5,3.7l0,0v-3.7h0.4V31.7z"/>
		<linearGradient id="SVGID_19_" gradientUnits="userSpaceOnUse" x1="126.8199" y1="29.527" x2="130.1844" y2="29.527">
			<stop  offset="0" style="stop-color:#5ACE4E"/>
			<stop  offset="1" style="stop-color:#A0CE4E"/>
		</linearGradient>
		<path class="st18" d="M130.2,27.7h-1.5v4h-0.4v-4h-1.5v-0.3h3.4V27.7z"/>
		<linearGradient id="SVGID_20_" gradientUnits="userSpaceOnUse" x1="133.3445" y1="29.527" x2="135.9547" y2="29.527">
			<stop  offset="0" style="stop-color:#5ACE4E"/>
			<stop  offset="1" style="stop-color:#A0CE4E"/>
		</linearGradient>
		<path class="st19" d="M135.7,29.6h-1.9v1.8h2.3v0.3h-2.6v-4.3h2.6v0.3h-2.2v1.6h1.9V29.6z"/>
		<linearGradient id="SVGID_21_" gradientUnits="userSpaceOnUse" x1="137.0332" y1="29.8476" x2="138.7931" y2="29.8476">
			<stop  offset="0" style="stop-color:#5ACE4E"/>
			<stop  offset="1" style="stop-color:#A0CE4E"/>
		</linearGradient>
		<path class="st20" d="M138.8,30H137v-0.3h1.8V30z"/>
		<linearGradient id="SVGID_22_" gradientUnits="userSpaceOnUse" x1="140.0929" y1="29.5271" x2="143.2517" y2="29.5271">
			<stop  offset="0" style="stop-color:#5ACE4E"/>
			<stop  offset="1" style="stop-color:#A0CE4E"/>
		</linearGradient>
		<path class="st21" d="M143.2,30.3L143.2,30.3c0,0.4-0.1,0.8-0.4,1c-0.3,0.3-0.7,0.4-1.1,0.4c-0.5,0-0.9-0.2-1.2-0.5
			c-0.3-0.3-0.4-0.8-0.4-1.4v-0.7c0-0.6,0.1-1,0.4-1.4c0.3-0.4,0.7-0.5,1.2-0.5c0.5,0,0.8,0.1,1.1,0.4c0.3,0.2,0.4,0.6,0.4,1l0,0
			h-0.3c0-0.4-0.1-0.6-0.3-0.8c-0.2-0.2-0.5-0.3-0.9-0.3c-0.4,0-0.7,0.1-0.9,0.4c-0.2,0.3-0.3,0.7-0.3,1.1v0.7
			c0,0.5,0.1,0.8,0.3,1.1c0.2,0.3,0.5,0.4,0.9,0.4c0.4,0,0.7-0.1,0.9-0.3c0.2-0.2,0.3-0.5,0.3-0.8H143.2z"/>
		<linearGradient id="SVGID_23_" gradientUnits="userSpaceOnUse" x1="144.4741" y1="29.5271" x2="147.8442" y2="29.5271">
			<stop  offset="0" style="stop-color:#5ACE4E"/>
			<stop  offset="1" style="stop-color:#A0CE4E"/>
		</linearGradient>
		<path class="st22" d="M147.8,29.9c0,0.6-0.2,1-0.5,1.4c-0.3,0.3-0.7,0.5-1.2,0.5c-0.5,0-0.9-0.2-1.2-0.5c-0.3-0.3-0.5-0.8-0.5-1.4
			v-0.7c0-0.6,0.2-1,0.5-1.4c0.3-0.3,0.7-0.5,1.2-0.5c0.5,0,0.9,0.2,1.2,0.5c0.3,0.3,0.5,0.8,0.5,1.4V29.9z M147.5,29.2
			c0-0.5-0.1-0.8-0.4-1.1c-0.2-0.3-0.6-0.4-1-0.4c-0.4,0-0.7,0.1-1,0.4c-0.2,0.3-0.3,0.7-0.3,1.1v0.7c0,0.5,0.1,0.9,0.3,1.1
			c0.2,0.3,0.6,0.4,1,0.4c0.4,0,0.8-0.1,1-0.4c0.2-0.3,0.4-0.7,0.4-1.1V29.2z"/>
		<linearGradient id="SVGID_24_" gradientUnits="userSpaceOnUse" x1="149.2571" y1="29.527" x2="153.4151" y2="29.527">
			<stop  offset="0" style="stop-color:#5ACE4E"/>
			<stop  offset="1" style="stop-color:#A0CE4E"/>
		</linearGradient>
		<path class="st23" d="M151.3,31.2L151.3,31.2l1.6-3.8h0.4v4.3h-0.4v-3.6l0,0l-1.6,3.7h-0.3l-1.6-3.7l0,0v3.7h-0.4v-4.3h0.5
			L151.3,31.2z"/>
		<linearGradient id="SVGID_25_" gradientUnits="userSpaceOnUse" x1="155.0126" y1="29.527" x2="159.1706" y2="29.527">
			<stop  offset="0" style="stop-color:#5ACE4E"/>
			<stop  offset="1" style="stop-color:#A0CE4E"/>
		</linearGradient>
		<path class="st24" d="M157.1,31.2L157.1,31.2l1.6-3.8h0.4v4.3h-0.4v-3.6l0,0l-1.6,3.7H157l-1.6-3.7l0,0v3.7H155v-4.3h0.5
			L157.1,31.2z"/>
		<linearGradient id="SVGID_26_" gradientUnits="userSpaceOnUse" x1="160.7686" y1="29.527" x2="163.3788" y2="29.527">
			<stop  offset="0" style="stop-color:#5ACE4E"/>
			<stop  offset="1" style="stop-color:#A0CE4E"/>
		</linearGradient>
		<path class="st25" d="M163.1,29.6h-1.9v1.8h2.3v0.3h-2.6v-4.3h2.6v0.3h-2.2v1.6h1.9V29.6z"/>
		<linearGradient id="SVGID_27_" gradientUnits="userSpaceOnUse" x1="164.6161" y1="29.5285" x2="167.7088" y2="29.5285">
			<stop  offset="0" style="stop-color:#5ACE4E"/>
			<stop  offset="1" style="stop-color:#A0CE4E"/>
		</linearGradient>
		<path class="st26" d="M165,29.7v2h-0.4v-4.3h1.4c0.5,0,0.8,0.1,1.1,0.3c0.2,0.2,0.4,0.5,0.4,0.9c0,0.2-0.1,0.4-0.2,0.6
			c-0.1,0.2-0.3,0.3-0.6,0.4c0.3,0.1,0.5,0.2,0.6,0.4c0.1,0.2,0.2,0.4,0.2,0.7V31c0,0.1,0,0.3,0,0.4c0,0.1,0.1,0.2,0.2,0.3v0.1h-0.4
			c-0.1-0.1-0.1-0.2-0.2-0.3c0-0.1,0-0.3,0-0.4v-0.4c0-0.3-0.1-0.5-0.3-0.6c-0.2-0.2-0.4-0.2-0.7-0.2H165z M165,29.4h1
			c0.4,0,0.7-0.1,0.9-0.2c0.2-0.2,0.3-0.4,0.3-0.6c0-0.3-0.1-0.5-0.3-0.7c-0.2-0.2-0.5-0.2-0.8-0.2H165V29.4z"/>
		<linearGradient id="SVGID_28_" gradientUnits="userSpaceOnUse" x1="168.937" y1="29.5271" x2="172.0959" y2="29.5271">
			<stop  offset="0" style="stop-color:#5ACE4E"/>
			<stop  offset="1" style="stop-color:#A0CE4E"/>
		</linearGradient>
		<path class="st27" d="M172.1,30.3L172.1,30.3c0,0.4-0.1,0.8-0.4,1c-0.3,0.3-0.7,0.4-1.1,0.4c-0.5,0-0.9-0.2-1.2-0.5
			c-0.3-0.3-0.4-0.8-0.4-1.4v-0.7c0-0.6,0.1-1,0.4-1.4c0.3-0.4,0.7-0.5,1.2-0.5c0.5,0,0.8,0.1,1.1,0.4c0.3,0.2,0.4,0.6,0.4,1l0,0
			h-0.3c0-0.4-0.1-0.6-0.3-0.8c-0.2-0.2-0.5-0.3-0.9-0.3c-0.4,0-0.7,0.1-0.9,0.4c-0.2,0.3-0.3,0.7-0.3,1.1v0.7
			c0,0.5,0.1,0.8,0.3,1.1c0.2,0.3,0.5,0.4,0.9,0.4c0.4,0,0.7-0.1,0.9-0.3c0.2-0.2,0.3-0.5,0.3-0.8H172.1z"/>
		<linearGradient id="SVGID_29_" gradientUnits="userSpaceOnUse" x1="173.5023" y1="29.527" x2="176.1125" y2="29.527">
			<stop  offset="0" style="stop-color:#5ACE4E"/>
			<stop  offset="1" style="stop-color:#A0CE4E"/>
		</linearGradient>
		<path class="st28" d="M175.8,29.6h-1.9v1.8h2.3v0.3h-2.6v-4.3h2.6v0.3h-2.2v1.6h1.9V29.6z"/>
		<linearGradient id="SVGID_30_" gradientUnits="userSpaceOnUse" x1="179.0758" y1="29.5271" x2="182.142" y2="29.5271">
			<stop  offset="0" style="stop-color:#5ACE4E"/>
			<stop  offset="1" style="stop-color:#A0CE4E"/>
		</linearGradient>
		<path class="st29" d="M181.8,30.6c0-0.2-0.1-0.4-0.3-0.6c-0.2-0.1-0.5-0.3-0.9-0.4c-0.5-0.1-0.8-0.3-1.1-0.5
			c-0.2-0.2-0.4-0.4-0.4-0.8c0-0.3,0.1-0.6,0.4-0.8c0.3-0.2,0.6-0.3,1-0.3c0.4,0,0.8,0.1,1.1,0.4c0.3,0.2,0.4,0.5,0.4,0.9l0,0h-0.3
			c0-0.3-0.1-0.5-0.3-0.7c-0.2-0.2-0.5-0.3-0.8-0.3c-0.3,0-0.6,0.1-0.8,0.2c-0.2,0.2-0.3,0.4-0.3,0.6c0,0.2,0.1,0.4,0.3,0.5
			c0.2,0.1,0.5,0.3,0.9,0.4c0.5,0.1,0.8,0.3,1,0.5c0.2,0.2,0.4,0.5,0.4,0.8c0,0.3-0.1,0.6-0.4,0.8c-0.3,0.2-0.6,0.3-1.1,0.3
			c-0.4,0-0.8-0.1-1.1-0.3c-0.3-0.2-0.5-0.5-0.5-1l0,0h0.3c0,0.3,0.1,0.6,0.4,0.8c0.3,0.2,0.5,0.2,0.9,0.2c0.3,0,0.6-0.1,0.8-0.2
			C181.7,31.1,181.8,30.9,181.8,30.6z"/>
		<linearGradient id="SVGID_31_" gradientUnits="userSpaceOnUse" x1="183.0658" y1="29.527" x2="186.5765" y2="29.527">
			<stop  offset="0" style="stop-color:#5ACE4E"/>
			<stop  offset="1" style="stop-color:#A0CE4E"/>
		</linearGradient>
		<path class="st30" d="M184.8,29.8l1.3-2.4h0.4l-1.6,2.8v1.6h-0.4v-1.6l-1.6-2.7h0.4L184.8,29.8z"/>
		<linearGradient id="SVGID_32_" gradientUnits="userSpaceOnUse" x1="187.4379" y1="29.5271" x2="190.5041" y2="29.5271">
			<stop  offset="0" style="stop-color:#5ACE4E"/>
			<stop  offset="1" style="stop-color:#A0CE4E"/>
		</linearGradient>
		<path class="st31" d="M190.1,30.6c0-0.2-0.1-0.4-0.3-0.6c-0.2-0.1-0.5-0.3-0.9-0.4c-0.5-0.1-0.8-0.3-1.1-0.5
			c-0.2-0.2-0.4-0.4-0.4-0.8c0-0.3,0.1-0.6,0.4-0.8c0.3-0.2,0.6-0.3,1-0.3c0.4,0,0.8,0.1,1.1,0.4c0.3,0.2,0.4,0.5,0.4,0.9l0,0h-0.3
			c0-0.3-0.1-0.5-0.3-0.7c-0.2-0.2-0.5-0.3-0.8-0.3c-0.3,0-0.6,0.1-0.8,0.2c-0.2,0.2-0.3,0.4-0.3,0.6c0,0.2,0.1,0.4,0.3,0.5
			c0.2,0.1,0.5,0.3,0.9,0.4c0.5,0.1,0.8,0.3,1,0.5c0.2,0.2,0.4,0.5,0.4,0.8c0,0.3-0.1,0.6-0.4,0.8c-0.3,0.2-0.6,0.3-1.1,0.3
			c-0.4,0-0.8-0.1-1.1-0.3c-0.3-0.2-0.5-0.5-0.5-1l0,0h0.3c0,0.3,0.1,0.6,0.4,0.8c0.3,0.2,0.5,0.2,0.9,0.2c0.3,0,0.6-0.1,0.8-0.2
			C190,31.1,190.1,30.9,190.1,30.6z"/>
		<linearGradient id="SVGID_33_" gradientUnits="userSpaceOnUse" x1="191.4579" y1="29.527" x2="194.8224" y2="29.527">
			<stop  offset="0" style="stop-color:#5ACE4E"/>
			<stop  offset="1" style="stop-color:#A0CE4E"/>
		</linearGradient>
		<path class="st32" d="M194.8,27.7h-1.5v4H193v-4h-1.5v-0.3h3.4V27.7z"/>
		<linearGradient id="SVGID_34_" gradientUnits="userSpaceOnUse" x1="196.0085" y1="29.527" x2="198.6187" y2="29.527">
			<stop  offset="0" style="stop-color:#5ACE4E"/>
			<stop  offset="1" style="stop-color:#A0CE4E"/>
		</linearGradient>
		<path class="st33" d="M198.3,29.6h-1.9v1.8h2.3v0.3H196v-4.3h2.6v0.3h-2.2v1.6h1.9V29.6z"/>
		<linearGradient id="SVGID_35_" gradientUnits="userSpaceOnUse" x1="199.8647" y1="29.527" x2="204.0226" y2="29.527">
			<stop  offset="0" style="stop-color:#5ACE4E"/>
			<stop  offset="1" style="stop-color:#A0CE4E"/>
		</linearGradient>
		<path class="st34" d="M202,31.2L202,31.2l1.6-3.8h0.4v4.3h-0.4v-3.6l0,0l-1.6,3.7h-0.3l-1.6-3.7l0,0v3.7h-0.4v-4.3h0.5L202,31.2z"
			/>
	</g>
	<text transform="matrix(1 0 0 1 45.3137 21.5879)" class="st35 st36 st37 st38">ACTIVE SUPER SHOP</text>
	<g>
		<path class="st39" d="M227.8,29.9C227.8,29.9,227.8,29.9,227.8,29.9l-19.9,0c0,0-0.1,0-0.1,0v-0.5c0,0,0,0,0.1,0h19.9
			c0,0,0.1,0,0.1,0V29.9z"/>
		<path class="st39" d="M207.9,27.4C207.9,27.4,207.9,27.4,207.9,27.4l0,4.4c0,0,0,0,0,0h-0.5c0,0,0,0,0,0v-4.3c0,0,0,0,0,0H207.9z"
			/>
	</g>
	<g>
		<path class="st39" d="M46,29.9C46,29.9,46,29.9,46,29.9l19.9,0c0,0,0.1,0,0.1,0v-0.5c0,0,0,0-0.1,0H46c0,0-0.1,0-0.1,0V29.9z"/>
		<path class="st39" d="M66,27.4C66,27.4,66,27.4,66,27.4l0,4.4c0,0,0,0,0,0h0.5c0,0,0,0,0,0v-4.3c0,0,0,0,0,0H66z"/>
	</g>
</g>
</svg>
